
<svg version="1.1" viewBox="0 0 105.83333 66.145835" xmlns="http://www.w3.org/2000/svg" >
 
 <g transform="translate(0 -230.85)">
  <path d="m28.459 272.56a9.8274 9.8274 0 0 0 -9.8278 9.8273 9.8274 9.8274 0 0 0 9.8278 9.8273 9.8274 9.8274 0 0 0 9.8273 -9.8273 9.8274 9.8274 0 0 0 -9.8273 -9.8273zm0 3.0065a6.8206 6.8206 0 0 1 6.8203 6.8208 6.8206 6.8206 0 0 1 -6.8203 6.8202 6.8206 6.8206 0 0 1 -6.8208 -6.8202 6.8206 6.8206 0 0 1 6.8208 -6.8208z" fill="#1a1a1a" style="paint-order:markers fill stroke"/>
  <path d="m2.0789 281.88 13.418-0.18899s1.1309-5.7018 2.8807-7.8039c2.7523-3.3065 5.3785-4.73 10.215-4.8125 3.8124-0.065 7.6868 1.5147 9.9705 4.5681 1.7245 2.3057 2.4474 8.2372 2.4474 8.2372l24.757-0.18899s0.95623-6.0352 2.9131-8.1589c2.651-2.877 6.7861-5.0162 10.694-4.8354 3.8405 0.17768 7.6532 2.6769 10.026 5.7021 1.5593 1.9882 2.0694 7.2923 2.0694 7.2923h12.095l-0.37798-24.19-25.565-0.94494-10.343-15.308-16.253-0.0279-0.02892 15.47-48.644-0.0212z" fill="none" stroke="#0b0b0b" stroke-width="2.6458"/>
  <path d="m78.706 272.29a9.8274 9.8274 0 0 0 -9.8278 9.8273 9.8274 9.8274 0 0 0 9.8278 9.8273 9.8274 9.8274 0 0 0 9.8273 -9.8273 9.8274 9.8274 0 0 0 -9.8273 -9.8273zm0 3.0065a6.8206 6.8206 0 0 1 6.8203 6.8208 6.8206 6.8206 0 0 1 -6.8203 6.8202 6.8206 6.8206 0 0 1 -6.8208 -6.8202 6.8206 6.8206 0 0 1 6.8208 -6.8208z" fill="#1a1a1a" style="paint-order:markers fill stroke"/>
 </g>
</svg>
